<svg width="643" height="101" viewBox="0 0 643 101" fill="none" xmlns="http://www.w3.org/2000/svg">
<path d="M0 2.67564e-05H206.7L194.497 6.34932L194.474 49.1218L173.987 87.4045L181.798 100.589L0 2.67564e-05Z" fill="#ED1C24"/>
<path d="M496.82 15.3383H496.577L485.42 36.0214H507.579L496.82 15.3383ZM478.902 48.0145L474.011 59.0779H448.917L479.173 0.182182H512.943L544.007 59.0779H518.783L513.975 48.0145H478.902Z" fill="white"/>
<path d="M338.05 15.3383H337.807L326.65 36.0214H348.81L338.05 15.3383ZM320.133 48.0145L315.241 59.0779H290.138L320.394 0.182183H354.168L385.233 59.0779H360.009L355.201 48.0145H320.133Z" fill="white"/>
<path d="M589.125 0.186826H611.901L588.219 24.4113L617.76 59.0825H593.344L562.56 24.4767L562.373 33.5405V59.0825H544.007V0.186826H562.373V24.4767H562.56L589.125 0.186826Z" fill="white"/>
<path d="M623.754 59.0826H642.405V0.182251H623.754V59.0826Z" fill="white"/>
<path d="M447.67 13.7264V0.186826H385.42V12.6004H419.843L385.747 45.0617V59.0825H448.123V47.2249H414.251L447.67 13.7264Z" fill="white"/>
<path d="M305.14 -5.5489e-05H281.294L265.643 20.7531L250.001 -5.5489e-05H226.159L256.186 39.7777V59.0825H274.66V39.7777L305.14 -5.5489e-05Z" fill="white"/>
</svg>
